<?xml version="1.0" encoding="UTF-8"?>
<svg id="Capa_2" data-name="Capa 2" xmlns="http://www.w3.org/2000/svg" viewBox="0 0 354.61 484.56">
  <defs>
    <style>
      .cls-1 {
        fill: #706f6f;
      }
    </style>
  </defs>
  <g id="Capa_1-2" data-name="Capa 1">
    <g>
      <g>
        <g>
          <path class="cls-1" d="M161.88,313.58c-62.85,25.89-69.97,21.15-69.97,21.15v-20.71c0-1.61-1.31-2.92-2.92-2.92H53.86c-1.61,0-2.92,1.31-2.92,2.92v8.74c0,5.31-4.98,8.32-9.89,8.52-8.64,.35-10.93-7.51-17.56-10.76-3.2-1.57-6.65-2.44-10.05-2.39-.46,0-6.76-.09-6.76,0v49.07h12.52c6.07,0,10.95-6.62,14.1-9.77,3.15-3.15,8.19-2.52,8.19-2.52,8.75,0,10.47,5.93,10.7,9.55,.1,1.53,1.34,2.74,2.88,2.74h36.53c23.22,0,59.55-37.61,71.95-51.24,1.07-1.17-.2-2.97-1.67-2.37Z"/>
          <path class="cls-1" d="M354.61,177.16L199.47,22.17h0S177.33,0,177.33,0l-.02,.02-.02-.02-22.14,22.16h0S85.06,92.18,85.06,92.18V50.81c0-8.44-4.82-15.28-10.76-15.28h-6.65c-5.94,0-10.76,6.84-10.76,15.28V120.32L0,177.16H44.33l12.56-12.55v10.66h28.17v-38.8L177.31,44.31l132.98,132.85h44.33Z"/>
        </g>
        <g>
          <polygon class="cls-1" points="190.65 228.45 181.16 228.45 181.16 184.04 153.87 184.04 153.87 302.46 181.16 302.46 181.16 258.05 190.65 258.05 216.3 302.46 242.57 302.46 242.57 292.1 214.32 243.25 242.57 194.4 242.57 184.04 216.3 184.04 190.65 228.45"/>
          <polygon class="cls-1" points="56.89 184.04 56.86 184.04 56.86 302.46 56.89 302.46 85.06 302.46 145.68 302.46 145.68 272.86 86.47 272.86 86.47 258.05 130.88 258.05 130.88 228.45 86.47 228.45 86.47 213.65 145.68 213.65 145.68 184.04 85.06 184.04 56.89 184.04"/>
          <path class="cls-1" d="M173.15,95.9h-18.91c-4.23,0-7.66,3.43-7.66,7.66v18.83h26.58v-26.5Z"/>
          <path class="cls-1" d="M200.32,95.9h-18.91v26.5h26.58v-18.83c0-4.23-3.43-7.66-7.66-7.66Z"/>
          <path class="cls-1" d="M173.15,130.34h-26.58v18.83c0,4.23,3.43,7.66,7.66,7.66h18.91v-26.5Z"/>
          <path class="cls-1" d="M207.99,130.34h-26.58v26.5h18.91c4.23,0,7.66-3.43,7.66-7.66v-18.83Z"/>
          <path class="cls-1" d="M329.55,184.04h-68.76c-3.89,3.89-6.08,6.08-9.97,9.97v98.48c3.89,3.89,6.08,6.08,9.97,9.97h68.76c3.89-3.89,6.08-6.08,9.97-9.97v-98.48c-3.89-3.89-6.08-6.08-9.97-9.97Zm-17.32,88.82h-34.12v-59.21h34.12v59.21Z"/>
        </g>
      </g>
      <g>
        <path class="cls-1" d="M99.79,402.62c-4.42,0-6.63,1.55-6.63,4.64,0,1.6,.52,2.74,1.57,3.42,1.04,.68,3.35,1.51,6.91,2.5,3.57,.99,6.08,2.17,7.54,3.55s2.19,3.54,2.19,6.5c0,3.76-1.07,6.57-3.21,8.43-2.14,1.86-5.05,2.79-8.74,2.79-2.96,0-6.23-.35-9.81-1.04l-1.88-.37,.57-4.64c4.7,.63,8.28,.94,10.75,.94,4.31,0,6.47-1.91,6.47-5.74,0-1.5-.49-2.6-1.46-3.31-.97-.71-3.17-1.5-6.57-2.35-3.41-.85-5.95-2.03-7.62-3.52-1.67-1.5-2.5-3.86-2.5-7.1s1.05-5.68,3.16-7.33c2.1-1.65,5.02-2.48,8.74-2.48,2.68,0,5.84,.31,9.5,.94l1.83,.31-.47,4.7c-4.87-.56-8.31-.83-10.33-.83Z"/>
        <path class="cls-1" d="M130.01,433.88h-5.84v-14.71l-11.22-21.03h6.52l7.57,15.34,7.62-15.34h6.47l-11.11,21.03v14.71Z"/>
        <path class="cls-1" d="M155.05,402.62c-4.42,0-6.63,1.55-6.63,4.64,0,1.6,.52,2.74,1.57,3.42,1.04,.68,3.35,1.51,6.91,2.5,3.56,.99,6.08,2.17,7.54,3.55,1.46,1.37,2.19,3.54,2.19,6.5,0,3.76-1.07,6.57-3.21,8.43-2.14,1.86-5.05,2.79-8.74,2.79-2.96,0-6.23-.35-9.81-1.04l-1.88-.37,.57-4.64c4.7,.63,8.28,.94,10.75,.94,4.31,0,6.47-1.91,6.47-5.74,0-1.5-.49-2.6-1.46-3.31-.97-.71-3.17-1.5-6.57-2.35-3.41-.85-5.95-2.03-7.62-3.52-1.67-1.5-2.5-3.86-2.5-7.1s1.05-5.68,3.16-7.33c2.1-1.65,5.02-2.48,8.74-2.48,2.68,0,5.84,.31,9.5,.94l1.83,.31-.47,4.7c-4.87-.56-8.31-.83-10.33-.83Z"/>
        <path class="cls-1" d="M169.45,403.3v-5.17h26.09v5.17h-10.07v30.58h-5.84v-30.58h-10.17Z"/>
        <path class="cls-1" d="M200.34,433.88v-35.74h22.54v5.06h-16.75v10.12h13.62v5.01h-13.62v10.44h16.75v5.11h-22.54Z"/>
        <path class="cls-1" d="M229.2,433.88v-35.74h10.07l7.98,27.92,7.98-27.92h10.12v35.74h-5.84v-29.32h-.78l-8.45,27.86h-6.05l-8.45-27.86h-.78v29.32h-5.79Z"/>
        <path class="cls-1" d="M13.52,484.56c-5.22,0-8.76-1.44-10.62-4.33-1.86-2.89-2.79-7.64-2.79-14.25s.94-11.31,2.82-14.11c1.88-2.8,5.41-4.2,10.59-4.2,3.1,0,6.5,.44,10.23,1.3l-.21,4.7c-3.13-.56-6.26-.83-9.39-.83s-5.25,.93-6.37,2.79c-1.11,1.86-1.67,5.36-1.67,10.49s.54,8.63,1.62,10.49c1.08,1.86,3.18,2.79,6.31,2.79s6.3-.26,9.5-.78l.16,4.8c-3.58,.76-6.98,1.15-10.17,1.15Z"/>
        <path class="cls-1" d="M53.77,480.18c-2.14,2.92-5.91,4.38-11.3,4.38s-9.17-1.47-11.32-4.41c-2.16-2.94-3.24-7.56-3.24-13.85s1.09-10.97,3.26-14.04c2.17-3.06,5.94-4.59,11.3-4.59s9.11,1.52,11.27,4.57c2.16,3.04,3.24,7.73,3.24,14.06s-1.07,10.96-3.21,13.88Zm-18.08-3.76c1.18,2.05,3.44,3.08,6.78,3.08s5.59-1.01,6.76-3.03c1.17-2.02,1.75-5.4,1.75-10.15s-.6-8.2-1.8-10.36c-1.2-2.16-3.44-3.23-6.71-3.23s-5.51,1.08-6.73,3.23c-1.22,2.16-1.83,5.59-1.83,10.31s.59,8.1,1.77,10.15Z"/>
        <path class="cls-1" d="M63.71,483.99v-35.74h10.12l10.85,30.63h.78v-30.63h5.79v35.74h-9.91l-11.11-30.68h-.73v30.68h-5.79Z"/>
        <path class="cls-1" d="M110,452.73c-4.42,0-6.63,1.55-6.63,4.64,0,1.6,.52,2.74,1.57,3.42,1.04,.68,3.35,1.51,6.91,2.5,3.57,.99,6.08,2.17,7.54,3.55s2.19,3.54,2.19,6.5c0,3.76-1.07,6.57-3.21,8.43-2.14,1.86-5.05,2.79-8.74,2.79-2.96,0-6.23-.35-9.81-1.04l-1.88-.37,.57-4.64c4.7,.63,8.28,.94,10.75,.94,4.31,0,6.47-1.91,6.47-5.74,0-1.5-.49-2.6-1.46-3.31-.97-.71-3.17-1.5-6.57-2.35-3.41-.85-5.95-2.03-7.62-3.52-1.67-1.5-2.5-3.86-2.5-7.1s1.05-5.68,3.16-7.33c2.1-1.65,5.02-2.48,8.74-2.48,2.68,0,5.84,.31,9.5,.94l1.83,.31-.47,4.7c-4.87-.56-8.31-.83-10.33-.83Z"/>
        <path class="cls-1" d="M124.4,453.41v-5.17h26.09v5.17h-10.07v30.58h-5.84v-30.58h-10.17Z"/>
        <path class="cls-1" d="M161.08,471.26v12.73h-5.79v-35.74h13.57c8.07,0,12.11,3.79,12.11,11.38,0,5.08-1.95,8.52-5.84,10.33l5.9,14.04h-6.37l-5.17-12.73h-8.4Zm13.93-11.58c0-4.28-2.05-6.42-6.16-6.42h-7.77v12.99h7.88c2.09,0,3.62-.6,4.59-1.8,.97-1.2,1.46-2.79,1.46-4.77Z"/>
        <path class="cls-1" d="M193.06,472.56c0,4.63,2.43,6.94,7.3,6.94s7.31-2.31,7.31-6.94v-24.32h5.84v24.21c0,4.21-1.1,7.28-3.31,9.21s-5.5,2.9-9.86,2.9-7.64-.97-9.83-2.9-3.29-5-3.29-9.21v-24.21h5.84v24.32Z"/>
        <path class="cls-1" d="M233.45,484.56c-5.22,0-8.76-1.44-10.62-4.33-1.86-2.89-2.79-7.64-2.79-14.25s.94-11.31,2.82-14.11c1.88-2.8,5.41-4.2,10.59-4.2,3.1,0,6.5,.44,10.23,1.3l-.21,4.7c-3.13-.56-6.26-.83-9.39-.83s-5.25,.93-6.37,2.79c-1.11,1.86-1.67,5.36-1.67,10.49s.54,8.63,1.62,10.49c1.08,1.86,3.18,2.79,6.31,2.79s6.29-.26,9.5-.78l.16,4.8c-3.58,.76-6.97,1.15-10.17,1.15Z"/>
        <path class="cls-1" d="M246.39,453.41v-5.17h26.09v5.17h-10.07v30.58h-5.84v-30.58h-10.17Z"/>
        <path class="cls-1" d="M277.28,483.99v-35.74h5.79v35.74h-5.79Z"/>
        <path class="cls-1" d="M315.6,480.18c-2.14,2.92-5.91,4.38-11.3,4.38s-9.17-1.47-11.32-4.41c-2.16-2.94-3.24-7.56-3.24-13.85s1.09-10.97,3.26-14.04c2.17-3.06,5.94-4.59,11.3-4.59s9.11,1.52,11.27,4.57c2.16,3.04,3.23,7.73,3.23,14.06s-1.07,10.96-3.21,13.88Zm-18.08-3.76c1.18,2.05,3.44,3.08,6.78,3.08s5.59-1.01,6.76-3.03c1.17-2.02,1.75-5.4,1.75-10.15s-.6-8.2-1.8-10.36c-1.2-2.16-3.44-3.23-6.7-3.23s-5.51,1.08-6.73,3.23c-1.22,2.16-1.83,5.59-1.83,10.31s.59,8.1,1.77,10.15Z"/>
        <path class="cls-1" d="M325.55,483.99v-35.74h10.12l10.85,30.63h.78v-30.63h5.79v35.74h-9.91l-11.11-30.68h-.73v30.68h-5.79Z"/>
      </g>
    </g>
  </g>
</svg>