<?xml version="1.0" encoding="UTF-8"?>
<svg id="Capa_2" data-name="Capa 2" xmlns="http://www.w3.org/2000/svg" viewBox="0 0 806.45 835.05">
  <defs>
    <style>
      .cls-1 {
        fill: #4d4d4d;
      }
    </style>
  </defs>
  <g id="Capa_2-2" data-name="Capa 2">
    <g>
      <g>
        <path class="cls-1" d="M368.14,713.13c-142.93,58.88-159.11,48.09-159.11,48.09v-47.11c0-3.67-2.98-6.65-6.65-6.65H122.49c-3.67,0-6.65,2.98-6.65,6.65v19.87c0,12.08-11.33,18.92-22.49,19.37-19.64,.8-24.85-17.08-39.94-24.47-7.28-3.56-15.12-5.54-22.86-5.44-1.04,.01-15.38-.22-15.38,0v111.6h28.46c13.8,0,24.91-15.05,32.08-22.22,7.17-7.17,18.64-5.73,18.64-5.73,19.91,0,23.82,13.48,24.34,21.72,.22,3.49,3.06,6.23,6.55,6.23h83.07c52.82,0,135.42-85.52,163.63-116.53,2.43-2.67-.46-6.77-3.8-5.39Z"/>
        <path class="cls-1" d="M806.45,402.88L453.63,50.41h0S403.28,0,403.28,0l-.06,.06-.06-.06-50.36,50.41h0S193.44,209.63,193.44,209.63V115.55c0-19.19-10.96-34.75-24.47-34.75h-15.11c-13.52,0-24.47,15.56-24.47,34.75v158.08L0,402.88H100.81l28.57-28.55v24.24h64.06v-88.23L403.22,100.77l302.41,302.11h100.81Z"/>
      </g>
      <g>
        <polygon class="cls-1" points="433.56 519.53 411.99 519.53 411.99 418.54 349.92 418.54 349.92 687.84 411.99 687.84 411.99 586.85 433.56 586.85 491.91 687.84 551.65 687.84 551.65 664.28 487.41 553.19 551.65 442.1 551.65 418.54 491.91 418.54 433.56 519.53"/>
        <polygon class="cls-1" points="129.39 418.54 129.32 418.54 129.32 687.84 129.39 687.84 193.44 687.84 331.29 687.84 331.29 620.52 196.64 620.52 196.64 586.85 297.63 586.85 297.63 519.53 196.64 519.53 196.64 485.86 331.29 485.86 331.29 418.54 193.44 418.54 129.39 418.54"/>
        <path class="cls-1" d="M393.78,218.1h-43.01c-9.63,0-17.43,7.8-17.43,17.43v42.83h60.44v-60.26Z"/>
        <path class="cls-1" d="M455.56,218.1h-43.01v60.26h60.44v-42.83c0-9.63-7.8-17.43-17.43-17.43Z"/>
        <path class="cls-1" d="M393.78,296.41h-60.44v42.83c0,9.63,7.8,17.43,17.43,17.43h43.01v-60.26Z"/>
        <path class="cls-1" d="M472.99,296.41h-60.44v60.26h43.01c9.63,0,17.43-7.8,17.43-17.43v-42.83Z"/>
        <path class="cls-1" d="M749.45,418.54h-156.37c-8.86,8.86-13.82,13.82-22.68,22.68v223.95c8.86,8.86,13.82,13.82,22.68,22.68h156.37c8.86-8.86,13.82-13.82,22.68-22.68v-223.95c-8.86-8.86-13.82-13.82-22.68-22.68Zm-39.39,201.98h-77.59v-134.65h77.59v134.65Z"/>
      </g>
    </g>
  </g>
</svg>