<?xml version="1.0" encoding="UTF-8"?>
<svg id="Capa_2" data-name="Capa 2" xmlns="http://www.w3.org/2000/svg" viewBox="0 0 934.25 1214.98">
  <defs>
    <style>
      .cls-1 {
        letter-spacing: 0em;
      }

      .cls-2 {
        font-family: TitilliumWeb-SemiBold, 'Titillium Web';
        font-size: 135.48px;
      }

      .cls-2, .cls-3 {
        fill: #fff;
      }

      .cls-4 {
        fill: #ff9411;
      }

      .cls-5 {
        letter-spacing: -.01em;
      }

      .cls-6 {
        letter-spacing: -.02em;
      }

      .cls-7 {
        letter-spacing: 0em;
      }
    </style>
  </defs>
  <g id="Capa_2-2" data-name="Capa 2">
    <g>
      <g>
        <path class="cls-4" d="M431.82,713.13c-142.93,58.88-159.11,48.09-159.11,48.09v-47.11c0-3.67-2.98-6.65-6.65-6.65h-79.88c-3.67,0-6.65,2.98-6.65,6.65v19.87c0,12.08-11.33,18.92-22.49,19.37-19.64,.8-24.85-17.08-39.94-24.47-7.28-3.56-15.12-5.54-22.86-5.44-1.04,.01-15.38-.22-15.38,0v111.6h28.46c13.8,0,24.91-15.05,32.08-22.22,7.17-7.17,18.64-5.73,18.64-5.73,19.91,0,23.82,13.48,24.34,21.72,.22,3.49,3.06,6.23,6.55,6.23h83.07c52.82,0,135.42-85.52,163.63-116.53,2.43-2.67-.46-6.77-3.8-5.39Z"/>
        <path class="cls-4" d="M870.12,402.88L517.31,50.41h0S466.96,0,466.96,0l-.06,.06-.06-.06-50.36,50.41h0s-159.38,159.23-159.38,159.23V115.55c0-19.19-10.96-34.75-24.47-34.75h-15.11c-13.52,0-24.47,15.56-24.47,34.75v158.08L63.68,402.88h100.81l28.57-28.55v24.24h64.06v-88.23L466.9,100.77l302.41,302.11h100.81Z"/>
      </g>
      <g>
        <polygon class="cls-3" points="497.24 519.53 475.67 519.53 475.67 418.54 413.6 418.54 413.6 687.84 475.67 687.84 475.67 586.85 497.24 586.85 555.58 687.84 615.32 687.84 615.32 664.28 551.08 553.19 615.32 442.1 615.32 418.54 555.58 418.54 497.24 519.53"/>
        <polygon class="cls-3" points="193.06 418.54 192.99 418.54 192.99 687.84 193.06 687.84 257.12 687.84 394.97 687.84 394.97 620.52 260.32 620.52 260.32 586.85 361.31 586.85 361.31 519.53 260.32 519.53 260.32 485.86 394.97 485.86 394.97 418.54 257.12 418.54 193.06 418.54"/>
        <path class="cls-3" d="M457.45,218.1h-43.01c-9.63,0-17.43,7.8-17.43,17.43v42.83h60.44v-60.26Z"/>
        <path class="cls-3" d="M519.24,218.1h-43.01v60.26h60.44v-42.83c0-9.63-7.8-17.43-17.43-17.43Z"/>
        <path class="cls-3" d="M457.45,296.41h-60.44v42.83c0,9.63,7.8,17.43,17.43,17.43h43.01v-60.26Z"/>
        <path class="cls-3" d="M536.67,296.41h-60.44v60.26h43.01c9.63,0,17.43-7.8,17.43-17.43v-42.83Z"/>
        <path class="cls-3" d="M813.13,418.54h-156.37c-8.86,8.86-13.82,13.82-22.68,22.68v223.95c8.86,8.86,13.82,13.82,22.68,22.68h156.37c8.86-8.86,13.82-13.82,22.68-22.68v-223.95c-8.86-8.86-13.82-13.82-22.68-22.68Zm-39.39,201.98h-77.59v-134.65h77.59v134.65Z"/>
      </g>
    </g>
    <text class="cls-2" transform="translate(227.94 1068.55)"><tspan class="cls-5" x="0" y="0">S</tspan><tspan class="cls-6" x="71.53" y="0">Y</tspan><tspan class="cls-1" x="143.47" y="0">STEM</tspan><tspan class="cls-7" x="-227.94" y="105.78">C</tspan><tspan x="-155.32" y="105.78">ONSTRUCTION</tspan></text>
  </g>
</svg>